<svg xmlns="http://www.w3.org/2000/svg" width="24" height="24" viewBox="0 0 24 24" fill="none" stroke="#3B82F6" stroke-width="2" stroke-linecap="round" stroke-linejoin="round">
  <path d="M9 21c0 1-1 1-1 1H5a1 1 0 0 1-1-1v-4c0-1 1-1 1-1h3c1 0 1 1 1 1v4Z"/>
  <path d="M4 17c0-2 2-2 2-2h12s2 0 2 2v1.9c0 1.1-.9 2-2 2"/>
  <path d="M13 21c0 1 1 1 1 1h3c1 0 1-1 1-1v-4c0-1-1-1-1-1h-3c-1 0-1 1-1 1v4Z"/>
  <path d="m7 11 5-2.5L9 8l5-2.5L12 5"/>
  <path d="M19 8c0-.3 0-.5-.1-.8-.1-.2-.2-.2-.4-.4-.3-.3-.8-.8-1.2-1.2-1-1-1.3-2.1-1.3-3.1 0-.8.2-1.5.5-2"/>
  <path d="M5 8c0-.3 0-.5.1-.8.1-.2.2-.2.4-.4.3-.3.8-.8 1.2-1.2 1-1 1.3-2.1 1.3-3.1 0-.8-.2-1.5-.5-2"/>
  <path d="M12 10v4"/>
</svg>